# xmcd
#
# Track frame offsets: 
#        183
#        12720
#        27215
#        38675
#        51253
#        63943
#        73570
#        91520
#        100923
#        116090
#        128063
#        143133
#        157933
#        172655
#        188323
#        199988
#        209833
#        223358
#
# Disc length: 3157 seconds
#
# Revision: 2
# Processed by: cddbd v1.5.2PL0 Copyright (c) Steve Scherf et al.
# Submitted via: ExactAudioCopy v0.95b4
#
DISCID=fb0c5312
DTITLE=Various Artist - Brazil Classics 3
DYEAR=1991
DGENRE=MPB
TTITLE0=O Fole Roncou
TTITLE1=Festa do Interior
TTITLE2=Tum-Tum-Tum
TTITLE3=Danado de Bom
TTITLE4=Querubim
TTITLE5=O Sucesso da Zefinha
TTITLE6=I de Dar Agua na Boca
TTITLE7=Vou com Vocj
TTITLE8=Asa Branca
TTITLE9=Recordagao de Vaqueiro
TTITLE10=Bom Demais
TTITLE11=Tarde Nordestina
TTITLE12=A Feira de Caruaru
TTITLE13=Aniversario do Seu Vava
TTITLE14=Chiclete com Banana
TTITLE15=Rejeigao
TTITLE16=Estrela Mizda
TTITLE17=Sanfonia Choradeira
EXTD=
EXTT0=Luiz Gonzaga
EXTT1=Gal Costa
EXTT2=Jackson do Pandeiro
EXTT3=Luiz Gonzaga
EXTT4=Dominguinhos
EXTT5=Anastacia
EXTT6=Nando Cordel and Amelinha
EXTT7=Dominguinhos
EXTT8=Gonzaguinha
EXTT9=Clemilda
EXTT10=Jorge de Altinho and Dominguinhos
EXTT11=Marinalva
EXTT12=Luiz Gonzaga
EXTT13=Genival Lacerda
EXTT14=Jackson do Pandeiro
EXTT15=Trio Nordestino
EXTT16=Joao Do Vale
EXTT17=Luiz Gonzaga and Elba Ramalho
PLAYORDER=
